<svg width="71" height="32" xmlns="http://www.w3.org/2000/svg">
    <path d="M55.135 0c-3.697 0-8.473 2.236-14.604 6.836-2.184 1.644-9.565 8.15-9.87 8.418-6.08 5.258-12.035 8.932-14.463 8.932a8.22 8.22 0 0 1-5.805-2.399 8.18 8.18 0 0 1 0-11.582 8.22 8.22 0 0 1 5.805-2.399c1.936 0 6.256 2.254 10.61 5.486l1.564-1.307c-3.97-2.988-9.2-6.16-12.174-6.16a10.22 10.22 0 0 0-7.211 2.979A10.172 10.172 0 0 0 6 15.997a10.15 10.15 0 0 0 2.987 7.193 10.202 10.202 0 0 0 7.211 2.98c4.646 0 13.948-7.844 15.775-9.424.075-.068 7.627-6.733 9.755-8.318C47.5 4.09 51.887 1.98 55.135 1.98c3.726 0 7.3 1.477 9.936 4.106a13.997 13.997 0 0 1 0 19.822 14.069 14.069 0 0 1-9.936 4.106c-3.24 0-7.628-2.103-13.409-6.428a67.222 67.222 0 0 1-1.5-1.159l-1.549 1.303c.552.442 1.191.94 1.862 1.446C46.678 29.768 51.458 32 55.141 32a16.06 16.06 0 0 0 11.226-4.75A15.98 15.98 0 0 0 71 15.996a15.98 15.98 0 0 0-4.637-11.25A16.06 16.06 0 0 0 55.135 0z"/>
    <path d="M54.92 5.824c-4.65 0-13.98 7.856-15.819 9.444l-4.35 3.917a98.305 98.305 0 0 1-5.42 4.405c-5.797 4.332-10.19 6.428-13.433 6.428a14.119 14.119 0 0 1-9.96-4.106 13.985 13.985 0 0 1-4.125-9.913c0-3.718 1.484-7.284 4.125-9.913a14.119 14.119 0 0 1 9.96-4.106c3.25 0 7.644 2.105 13.43 6.434.515.396 1.032.793 1.591 1.22l1.558-1.299a90.116 90.116 0 0 0-1.941-1.503C24.38 2.236 19.596 0 15.897 0A16.114 16.114 0 0 0 4.646 4.749 15.963 15.963 0 0 0 0 16c0 4.213 1.67 8.256 4.646 11.251A16.114 16.114 0 0 0 15.898 32c3.688 0 8.474-2.232 14.631-6.826a98.808 98.808 0 0 0 5.548-4.507l4.34-3.916c6.103-5.265 12.066-8.945 14.504-8.945 2.182 0 4.275.863 5.818 2.4a8.17 8.17 0 0 1 2.41 5.79 8.17 8.17 0 0 1-2.41 5.791 8.248 8.248 0 0 1-5.818 2.399c-1.865 0-5.77-2.115-10.346-5.58l-1.572 1.304c3.394 2.596 8.744 6.258 11.92 6.258a10.244 10.244 0 0 0 7.134-3.03A10.148 10.148 0 0 0 65 15.995c0-2.673-1.058-5.24-2.944-7.143a10.244 10.244 0 0 0-7.135-3.028z"/>
</svg>