<svg xmlns="http://www.w3.org/2000/svg" width="32" height="32">
    <path fill-rule="evenodd" d="M16 28c6.627 0 12-5.373 12-12S22.627 4 16 4 4 9.373 4 16s5.373 12 12 12zm2.444-17.23l3.429 3.428A.413.413 0 0 1 22 14.5a.412.412 0 0 1-.127.301l-3.429 3.429a.412.412 0 0 1-.301.127.412.412 0 0 1-.302-.127.412.412 0 0 1-.127-.302v-1.714h-1.5c-.437 0-.829.014-1.175.04-.346.027-.69.075-1.031.144-.342.07-.639.164-.89.285-.253.12-.489.276-.707.465a2.33 2.33 0 0 0-.536.677c-.139.26-.247.57-.325.927a5.703 5.703 0 0 0-.117 1.212c0 .245.011.52.034.824 0 .026.005.079.016.157s.017.137.017.178a.25.25 0 0 1-.057.167.195.195 0 0 1-.157.067c-.072 0-.134-.038-.188-.114a.76.76 0 0 1-.087-.147 13.49 13.49 0 0 1-.16-.362c-.568-1.272-.851-2.279-.851-3.02 0-.888.118-1.632.355-2.23.723-1.799 2.676-2.699 5.86-2.699h1.5v-1.714c0-.116.042-.216.127-.301a.411.411 0 0 1 .3-.127c.117 0 .217.042.302.127z" clip-rule="evenodd"/>
</svg>