<svg xmlns="http://www.w3.org/2000/svg" width="123" height="122" fill="none">
    <path fill="#fff" d="M52.998 64.41l3.573.893a.174.174 0 0 1 .127.127l.893 3.573a3.466 3.466 0 0 0 3.41 2.662 3.466 3.466 0 0 0 3.409-2.662l.893-3.573a.174.174 0 0 1 .127-.127l3.573-.893A3.466 3.466 0 0 0 71.665 61a3.466 3.466 0 0 0-2.662-3.409l-3.573-.893a.175.175 0 0 1-.127-.127l-.893-3.573A3.466 3.466 0 0 0 61 50.336a3.466 3.466 0 0 0-3.409 2.662l-.893 3.573a.174.174 0 0 1-.127.127l-3.573.893a3.466 3.466 0 0 0-2.662 3.41 3.466 3.466 0 0 0 2.662 3.409zm.81-3.579l3.573-.893a3.508 3.508 0 0 0 2.557-2.557l.893-3.573c.017-.068.033-.132.17-.132.136 0 .152.064.169.132l.893 3.573a3.508 3.508 0 0 0 2.557 2.557l3.573.893c.068.017.132.033.132.17 0 .136-.064.152-.132.169l-3.573.893a3.508 3.508 0 0 0-2.557 2.557l-.893 3.573c-.017.068-.033.132-.17.132-.136 0-.152-.064-.169-.132l-.893-3.573a3.508 3.508 0 0 0-2.557-2.557l-3.573-.894c-.068-.016-.132-.032-.132-.169 0-.136.064-.152.132-.169z"/>
    <path fill="#fff" d="M48.06 50.47a1.67 1.67 0 0 0-2.314.473A18.195 18.195 0 0 0 42.73 61c0 10.074 8.196 18.27 18.27 18.27 10.073 0 18.268-8.196 18.268-18.27 0-10.073-8.195-18.269-18.269-18.269-3.593 0-7.07 1.043-10.057 3.016a1.67 1.67 0 0 0 1.841 2.786A14.862 14.862 0 0 1 61 46.071c8.232 0 14.93 6.697 14.93 14.93 0 8.231-6.698 14.929-14.93 14.929-8.231 0-14.929-6.698-14.929-14.93 0-2.936.852-5.777 2.463-8.216a1.67 1.67 0 0 0-.474-2.314z"/>
    <path fill="#fff" d="M64.826 106.777a1.67 1.67 0 0 0-.274-3.329 43.238 43.238 0 0 1-3.552.146c-23.486 0-42.594-19.108-42.594-42.594 0-7.49 1.97-14.853 5.698-21.296a1.67 1.67 0 0 0-2.891-1.673A45.923 45.923 0 0 0 15.066 61c0 25.328 20.606 45.934 45.934 45.934a46.82 46.82 0 0 0 3.826-.157zM45.688 17.68a1.67 1.67 0 0 0 1.113 3.15A42.498 42.498 0 0 1 61 18.405c23.486 0 42.594 19.108 42.594 42.594 0 8.03-2.227 15.794-6.453 22.55a5.365 5.365 0 0 0-6.956 5.115c0 .971.261 1.882.714 2.668a42.456 42.456 0 0 1-12.152 8.4 1.67 1.67 0 1 0 1.393 3.035 45.767 45.767 0 0 0 13.248-9.199c.66.292 1.39.455 2.156.455a5.364 5.364 0 0 0 5.358-5.359c0-1.184-.387-2.28-1.04-3.168 4.629-7.329 7.072-15.768 7.072-24.497 0-25.328-20.606-45.934-45.934-45.934-5.252 0-10.404.88-15.312 2.615zm49.856 73.004a2.02 2.02 0 0 1-2.02-2.019 2.02 2.02 0 0 1 2.02-2.018 2.02 2.02 0 0 1 2.018 2.018 2.02 2.02 0 0 1-2.018 2.019z"/>
    <path fill="#fff" d="M5.67 62.67A1.67 1.67 0 0 0 7.34 61c0-13.69 5.104-26.616 14.405-36.582a7.162 7.162 0 0 0 4.213 1.365c3.971 0 7.203-3.231 7.203-7.203a7.155 7.155 0 0 0-.677-3.042C41.021 10.17 50.844 7.34 61 7.34A1.67 1.67 0 1 0 61 4c-10.913 0-21.466 3.077-30.609 8.91a7.166 7.166 0 0 0-4.433-1.533c-3.972 0-7.203 3.232-7.203 7.203 0 1.185.289 2.304.798 3.29C9.513 32.493 4 46.335 4 61c0 .922.748 1.67 1.67 1.67zm20.288-47.953a3.868 3.868 0 0 1 3.863 3.863 3.867 3.867 0 0 1-3.863 3.864 3.867 3.867 0 0 1-3.863-3.864 3.867 3.867 0 0 1 3.863-3.863zM116.328 59.33a1.67 1.67 0 0 0-1.67 1.67c0 29.588-24.072 53.66-53.66 53.66a1.67 1.67 0 0 0 0 3.34c15.225 0 29.54-5.929 40.305-16.695 10.766-10.766 16.695-25.08 16.695-40.305a1.67 1.67 0 0 0-1.67-1.67zM84.035 35.353c-1.4 0-2.706.403-3.813 1.096a31.188 31.188 0 0 0-19.221-6.629c-15.253 0-28.239 11.072-30.744 25.966A5.367 5.367 0 0 0 26.133 61a5.367 5.367 0 0 0 4.124 5.214C32.762 81.108 45.748 92.179 61 92.179c7.132 0 13.844-2.344 19.412-6.779a1.67 1.67 0 1 0-2.081-2.612C73.362 86.747 67.369 88.84 61 88.84c-13.527 0-25.057-9.75-27.404-22.912A5.366 5.366 0 0 0 36.85 61a5.366 5.366 0 0 0-3.253-4.927C35.944 42.91 47.474 33.16 61.001 33.16c6.106 0 12.033 2.01 16.862 5.688a7.16 7.16 0 0 0-1.03 3.709c0 3.971 3.23 7.202 7.202 7.202a7.17 7.17 0 0 0 2.274-.37A27.939 27.939 0 0 1 88.84 61c0 6.368-2.092 12.361-6.05 17.33a1.67 1.67 0 1 0 2.612 2.082C89.836 74.844 92.18 68.132 92.18 61c0-4.633-1.043-9.233-3.019-13.39a7.178 7.178 0 0 0 2.077-5.053c0-3.973-3.231-7.204-7.203-7.204zM31.492 58.981c1.113 0 2.018.905 2.018 2.018a2.02 2.02 0 0 1-2.018 2.02 2.021 2.021 0 0 1-2.02-2.02 2.02 2.02 0 0 1 2.02-2.018zm48.68-16.425a3.868 3.868 0 0 1 3.863-3.863 3.868 3.868 0 0 1 3.863 3.863 3.867 3.867 0 0 1-3.863 3.863 3.868 3.868 0 0 1-3.863-3.863zM83.13 11.028h2.02v2.02a1.67 1.67 0 1 0 3.34 0v-2.02h2.018a1.67 1.67 0 1 0 0-3.34H88.49V5.67a1.67 1.67 0 1 0-3.34 0v2.019h-2.02a1.67 1.67 0 1 0 0 3.34zM38.867 110.972H36.85v-2.019a1.67 1.67 0 0 0-3.34 0v2.019H31.49a1.67 1.67 0 1 0 0 3.34h2.019v2.018a1.67 1.67 0 1 0 3.34 0v-2.018h2.019a1.67 1.67 0 0 0 0-3.34zM14.893 88.84a1.67 1.67 0 0 0-1.67 1.67v3.688a1.67 1.67 0 1 0 3.34 0V90.51a1.67 1.67 0 0 0-1.67-1.67zM14.893 103.594a1.67 1.67 0 0 0-1.67 1.67v3.688a1.67 1.67 0 1 0 3.34 0v-3.688a1.67 1.67 0 0 0-1.67-1.67zM24.113 98.061h-3.69a1.67 1.67 0 1 0 0 3.34h3.69a1.67 1.67 0 1 0 0-3.34zM9.359 98.061h-3.69a1.67 1.67 0 1 0 0 3.34h3.69a1.67 1.67 0 1 0 0-3.34zM107.107 18.406a1.67 1.67 0 0 0 1.67-1.67v-3.688a1.67 1.67 0 1 0-3.339 0v3.688c0 .923.747 1.67 1.669 1.67zM107.107 33.16a1.67 1.67 0 0 0 1.67-1.67v-3.688a1.67 1.67 0 1 0-3.339 0v3.688c0 .923.747 1.67 1.669 1.67zM112.643 23.939h3.688a1.67 1.67 0 1 0 0-3.34h-3.688a1.67 1.67 0 1 0 0 3.34zM97.889 23.939h3.688a1.67 1.67 0 1 0 0-3.34h-3.688a1.67 1.67 0 1 0 0 3.34z"/>
</svg>