<?xml version="1.0" encoding="utf-8"?><svg xmlns="http://www.w3.org/2000/svg" xmlns:xlink="http://www.w3.org/1999/xlink"><symbol viewBox="0 0 158 62" fill="none" id="britishdesign" xmlns="http://www.w3.org/2000/svg">
    <path d="M4.40705 58.8919H9.34787V62.0001H13.828V55.6619H12.496V47.0164H2.2517C2.10608 51.2661 1.69485 53.8404 1.04061 55.6619H-0.000732422V62.0001H4.40705V58.8919ZM31.0714 59.232C34.8738 59.232 37.4166 57.8719 37.4166 55.3218C37.4166 53.8646 36.69 53.0389 35.4551 52.6746C36.3267 52.0917 36.9562 51.1446 36.9562 50.0036C36.9562 47.8662 35.3339 46.7491 31.8224 46.7491C29.715 46.7491 27.9715 47.2107 27.9715 47.2107V50.3679C27.9715 50.3679 29.352 49.8821 30.8534 49.8821C31.7012 49.8821 32.3549 50.0523 32.3549 50.6349C32.3549 51.1688 31.8951 51.5095 31.2412 51.5095H29.2794V54.4719H30.6113C31.7739 54.4719 32.694 54.6418 32.694 55.2734C32.694 55.8805 31.7012 56.1477 30.6113 56.1477C28.9643 56.1477 27.7291 55.6619 27.7291 55.6619V58.6733C27.7291 58.6733 28.9158 59.232 31.0714 59.232ZM64.3472 58.8919H69.0215V54.3259H71.2495V58.8919H75.8508V47.0164H71.2495V50.9747H69.0215V47.0164H64.3472V58.8919ZM43.2775 56.2203C42.7207 56.2203 42.3571 55.8563 42.3571 55.1274C42.3571 54.4964 42.7689 54.0106 43.4955 54.0106H44.4642V55.5648C44.4642 55.5648 44.0768 56.2203 43.2775 56.2203ZM82.1721 56.2203C81.615 56.2203 81.2517 55.8563 81.2517 55.1274C81.2517 54.4964 81.6635 54.0106 82.3898 54.0106H83.3588V55.5648C83.3588 55.5648 82.9714 56.2203 82.1721 56.2203ZM55.6049 58.8677L58.3894 53.4032V58.8677H62.7731V47.0164H58.3415L55.5804 52.6266V47.0164H51.1727V58.8677H55.6049ZM19.2286 58.8677L22.0138 53.4032V58.8677H26.3974V47.0164H21.9652L19.2042 52.6266V47.0164H14.7967V58.8677H19.2286ZM6.12645 50.4163H7.87026V55.6619H5.15776C5.61814 54.2534 6.07821 52.5531 6.12645 50.4163ZM86.0713 59.2075C87.573 59.2075 89.1709 58.9164 89.1709 58.9164V56.099H89.05C88.0569 56.099 87.7178 56.0507 87.7178 55.3218V51.7522C87.7178 48.0122 85.9498 46.7491 82.1966 46.7491C79.7741 46.7491 77.9338 47.2836 77.9338 47.2836V50.4653C77.9338 50.4653 79.4596 49.9307 81.0578 49.9307C82.6808 49.9307 83.3588 50.6349 83.3588 51.3873V51.6788H81.8089C78.6604 51.6788 76.9648 53.2333 76.9648 55.6861C76.9648 57.9931 78.491 59.2075 80.5492 59.2075C82.2201 59.2075 83.1894 58.4789 83.6974 57.9447C83.9398 58.7707 84.739 59.2075 86.0713 59.2075ZM47.1764 59.2075C48.6781 59.2075 50.2766 58.9164 50.2766 58.9164V56.099H50.1554C49.1626 56.099 48.8238 56.0507 48.8238 55.3218V51.7522C48.8238 48.0122 47.0555 46.7491 43.3017 46.7491C40.8795 46.7491 39.0392 47.2836 39.0392 47.2836V50.4653C39.0392 50.4653 40.565 49.9307 42.1632 49.9307C43.7862 49.9307 44.4642 50.6349 44.4642 51.3873V51.6788H42.9142C39.7658 51.6788 38.0705 53.2333 38.0705 55.6861C38.0705 57.9931 39.5963 59.2075 41.6549 59.2075C43.3261 59.2075 44.2948 58.4789 44.8034 57.9447C45.0452 58.7707 45.8444 59.2075 47.1764 59.2075ZM57.0577 43.0822C55.5804 43.0822 55.6287 41.4793 55.6287 41.4793H52.1413C52.1413 44.8792 54.9024 45.9476 57.0577 45.9476C59.2372 45.9476 61.998 44.8792 61.998 41.4793H58.535C58.535 41.4793 58.6077 43.0822 57.0577 43.0822ZM76.7471 34.5096V36.1609C76.7471 38.0794 78.2244 38.4195 79.5567 38.4195C81.0578 38.4195 82.8984 38.1281 82.8984 38.1281V35.311H82.7775C81.7844 35.311 81.4456 35.2621 81.4456 34.5341V26.2284H75.439C72.3638 26.2284 70.2808 27.8552 70.2808 30.4539C70.2808 31.8141 70.9347 33.1739 72.3394 33.7326C71.8793 34.655 71.1768 35.214 70.2084 35.214C69.5786 35.214 68.8035 35.0438 68.8035 34.3883V30.9153C68.8035 27.1752 67.0355 25.9124 63.2817 25.9124C60.8601 25.9124 59.0192 26.4469 59.0192 26.4469V29.628C59.0192 29.628 60.5451 29.0944 62.1436 29.0944C63.7659 29.0944 64.4439 29.7985 64.4439 30.5513V30.8424H62.8943C59.7458 30.8424 58.0508 32.3966 58.0508 34.8494C58.0508 37.1567 59.5764 38.395 61.635 38.395C63.2576 38.395 64.2748 37.7151 65.195 36.6709C65.7765 37.7638 67.1809 38.4437 69.5301 38.4437C73.1865 38.4437 75.1728 36.9378 76.1659 34.5096H76.7471ZM113.317 33.6839H113.534L115.714 38.1036H120.558L117.458 31.7657L120.8 26.2525H116.029L113.583 30.4539H113.317V26.2525H108.667V38.1036H113.317V33.6839ZM5.42458 35.5538V33.4164H6.19941C7.11925 33.4164 7.65229 33.7326 7.65229 34.4606C7.65229 35.1169 7.11925 35.5538 6.19941 35.5538H5.42458ZM150.976 35.2379C150.419 35.2379 150.104 34.9219 150.104 34.2665C150.104 33.6839 150.443 33.2468 151.194 33.2468H152.042V34.6305C152.042 34.6305 151.776 35.2379 150.976 35.2379ZM64.4439 34.7275C64.4439 34.7275 64.0565 35.3836 63.2576 35.3836C62.7004 35.3836 62.3374 35.0196 62.3374 34.2913C62.3374 33.6591 62.7493 33.1739 63.4752 33.1739H64.4439V34.7275ZM17.9452 35.165V32.4211H18.3084C19.0106 32.4211 19.398 33.004 19.398 33.7565C19.398 34.6069 19.035 35.165 18.3084 35.165H17.9452ZM132.376 38.1764C132.376 38.1764 133.006 38.4195 133.975 38.4195C137.438 38.4195 138.165 35.4564 138.334 29.6525H139.835V38.1036H144.51V26.2525H134.386C134.265 33.514 134.072 35.0438 132.595 35.068C132.522 35.068 132.376 35.0438 132.376 35.0438V38.1764ZM75.9723 29.2882H76.7471V31.6197H75.9723C75.076 31.6197 74.6641 31.1583 74.6641 30.4539C74.6641 29.628 75.1728 29.2882 75.9723 29.2882ZM35.5763 38.4195C37.4648 38.4195 38.6274 37.885 38.6274 37.885V34.9219C38.6274 34.9219 37.8043 35.2379 36.7388 35.2379C35.2612 35.2379 34.3167 34.1692 34.3167 32.1052C34.3167 30.1138 35.2612 29.1424 36.7388 29.1424C37.8766 29.1424 38.5791 29.5554 38.5791 29.5554V26.4469C38.5791 26.4469 37.6587 25.9611 35.7457 25.9611C32.0163 25.9611 29.6182 28.4867 29.6182 32.2512C29.6182 36.2824 32.234 38.4195 35.5763 38.4195ZM126.322 35.2621C125.45 35.2621 124.845 34.4125 124.845 32.2022C124.845 30.0654 125.45 29.0454 126.322 29.0454C127.242 29.0454 127.751 30.0654 127.751 32.2022C127.751 34.4125 127.145 35.2621 126.322 35.2621ZM5.42458 30.8182V28.8265H6.10263C6.97454 28.8265 7.38607 29.2395 7.38607 29.774C7.38607 30.4052 6.97454 30.8182 6.10263 30.8182H5.42458ZM39.814 38.1036H57.0333V26.2525H52.4564V34.801H50.6885V26.2525H46.0865V34.801H44.2948V26.2525H39.814V38.1036ZM13.3921 38.1036H19.0106C22.0623 38.1036 23.5393 36.0393 23.5393 33.5621C23.5393 31.2551 22.0623 29.4826 19.0106 29.4826H17.9452V26.2525H13.3921V38.1036ZM23.9756 38.1036H28.5528V26.2525H23.9756V38.1036ZM0.749977 38.2251H6.63506C10.3648 38.2251 12.278 36.8408 12.278 34.5096C12.278 33.1497 11.4788 32.1781 10.0986 31.7412C11.1396 31.1822 11.6482 30.1867 11.6482 29.1666C11.6482 27.3693 10.1954 26.1313 7.19252 26.1313H0.749977V38.2251ZM154.875 38.4195C156.377 38.4195 158 38.1036 158 38.1036V35.2379H157.878C156.885 35.2379 156.546 35.165 156.546 34.5096V30.8182C156.546 26.9811 154.803 25.9611 150.976 25.9611C148.554 25.9611 146.738 26.5679 146.738 26.5679V29.8952C146.738 29.8952 148.264 29.3123 149.862 29.3123C151.485 29.3123 152.042 29.774 152.042 30.4539V30.7212H150.613C147.44 30.7212 145.721 32.348 145.721 34.8736C145.721 37.2293 147.295 38.4195 149.257 38.4195C151.025 38.4195 152.017 37.6422 152.502 37.1567C152.744 38.0062 153.495 38.4195 154.875 38.4195ZM106.85 38.1036V26.2525H102.322V34.801H100.53V26.2525H95.9282V34.801H94.1359V28.2926C94.1359 26.4469 93.4334 25.9369 91.6172 25.9369C89.8975 25.9369 88.1299 26.3257 88.1299 26.3257V29.0944H88.4932C89.3162 29.118 89.6069 29.1908 89.6069 29.871V38.1036H106.85ZM126.322 38.395C129.93 38.395 132.231 36.0638 132.231 32.2267C132.231 28.438 129.93 25.8641 126.322 25.8641C122.665 25.8641 120.364 28.4138 120.364 32.2022C120.364 36.0393 122.665 38.395 126.322 38.395ZM14.3125 22.1972H18.9138V16.9268C19.3498 17.2914 20.1005 17.7527 21.2627 17.7527C24.3633 17.7527 26.2762 14.8625 26.2762 11.293C26.2762 8.2571 25.041 5.24596 21.9652 5.24596C20.1973 5.24596 19.2042 6.04742 18.4296 6.99429C18.139 5.3675 16.9765 5.24596 16.129 5.24596C14.5546 5.24596 12.8108 5.58577 12.8108 5.58577V8.50016H13.1982C13.9733 8.50016 14.3125 8.57272 14.3125 9.20458V22.1972ZM115.424 13.8431V17.4126H120.122V5.56159H114.116C111.04 5.56159 108.957 7.18869 108.957 9.78715C108.957 11.147 109.611 12.5068 111.016 13.0652C110.556 13.9885 109.853 14.5469 108.885 14.5469C108.255 14.5469 107.48 14.3767 107.48 13.7213V10.2485C107.48 6.50846 105.712 5.24596 101.958 5.24596C99.5368 5.24596 97.6959 5.78048 97.6959 5.78048V8.96151C97.6959 8.96151 99.2217 8.4273 100.82 8.4273C102.443 8.4273 103.121 9.1311 103.121 9.8845V10.1759H101.571C98.4224 10.1759 96.7275 11.7299 96.7275 14.1829C96.7275 16.4899 98.2527 17.7286 100.311 17.7286C101.934 17.7286 102.951 17.0483 103.896 16.0044C104.477 17.097 105.93 17.7772 108.328 17.7772C111.912 17.7772 113.849 16.2714 114.842 13.8431H115.424ZM61.9497 17.4368H66.551V13.09H68.7791V17.4368H73.4537V5.58577H68.7791V9.76297H66.551V5.58577H61.9497V17.4368ZM89.4619 13.0417H89.7525L91.8111 17.4368H96.7275L93.6517 11.147L96.9693 5.58577H92.1499L89.7525 9.73848H89.4619V5.58577H84.8605V17.4368H89.4619V13.0417ZM55.2898 14.0372C55.2898 14.0372 54.9024 14.6929 54.1031 14.6929C53.546 14.6929 53.1827 14.4015 53.1827 13.6726C53.1827 13.0417 53.5945 12.6042 54.3214 12.6042H55.2898V14.0372ZM103.121 14.0611C103.121 14.0611 102.733 14.7171 101.934 14.7171C101.377 14.7171 101.014 14.3525 101.014 13.6242C101.014 12.9927 101.426 12.5068 102.152 12.5068H103.121V14.0611ZM31.9674 17.4368L34.7526 11.9733V17.4368H39.136V5.58577H34.7041L31.9436 11.1954V5.58577H27.5352V17.4368H31.9674ZM6.51416 14.3286C5.40016 14.3286 5.01244 13.3086 5.01244 11.7541C5.01244 10.127 5.40016 9.18008 6.51416 9.18008C7.53109 9.18008 7.9185 10.127 7.9185 11.7541C7.9185 13.3086 7.53109 14.3286 6.51416 14.3286ZM19.8584 14.1346C19.3013 14.1346 18.9138 13.8186 18.9138 13.8186V9.56857C18.9138 9.56857 19.3498 9.18008 20.0523 9.18008C21.1177 9.18008 21.5051 10.3455 21.5051 11.5845C21.5051 13.1387 20.8753 14.1346 19.8584 14.1346ZM114.649 8.6217H115.424V10.9526H114.649C113.753 10.9526 113.341 10.4916 113.341 9.78715C113.341 8.96151 113.849 8.6217 114.649 8.6217ZM80.5978 17.7527C82.5107 17.7527 83.625 17.1699 83.625 17.1699V14.1829C83.625 14.1829 82.8984 14.5227 81.7603 14.5227C80.2833 14.5227 79.3623 13.5027 79.3623 11.3659C79.3623 9.44734 80.2586 8.50016 81.7603 8.50016C82.9714 8.50016 83.625 8.86446 83.625 8.86446V5.707C83.625 5.707 82.6808 5.24596 80.7431 5.24596C77.0863 5.24596 74.5674 7.79575 74.5674 11.5113C74.5674 15.5917 77.2802 17.7527 80.5978 17.7527ZM39.8629 5.58577V8.98569H42.6963V17.4368H47.2976V8.96151H52.9888C54.6118 8.96151 55.2898 9.10723 55.2898 9.86001V10.273H53.7395C50.5914 10.273 48.8964 11.7054 48.8964 14.1581C48.8964 16.4658 50.4216 17.6799 52.4802 17.6799C54.1514 17.6799 55.1201 16.9516 55.6287 16.4168C55.8711 17.2427 56.6703 17.6799 58.002 17.6799C59.5037 17.6799 61.1019 17.3884 61.1019 17.3884V14.5711H60.981C59.9882 14.5711 59.649 14.5227 59.649 13.7944V10.224C59.649 6.48428 57.8808 5.58577 54.1276 5.58577H39.8629ZM6.36854 17.7038C10.4133 17.7038 12.5928 15.0086 12.5928 11.5113C12.5928 7.35859 10.3889 5.7318 7.6764 5.7318C6.29619 5.7318 5.40016 6.28988 4.91597 6.70285C5.03686 5.05157 6.22383 4.12858 8.06412 4.12858H9.34787C10.2921 4.12858 11.2849 3.98317 11.8906 3.66724V6.10352e-05C11.2126 0.218639 10.2921 0.340481 9.32345 0.340481H8.11236C3.19596 0.340481 0.241363 2.96313 0.241363 10.37C0.241363 14.9599 2.46968 17.7038 6.36854 17.7038Z" fill="white"/>
</symbol><symbol viewBox="0 0 14 14" fill="none" id="clock" xmlns="http://www.w3.org/2000/svg">
<path d="M7 0C3.14005 0 0 3.14005 0 7C0 10.86 3.14005 14 7 14C10.86 14 14 10.86 14 7C14 3.14005 10.86 0 7 0ZM10.3291 10.6207C10.2153 10.7345 10.066 10.7917 9.9167 10.7917C9.76738 10.7917 9.61795 10.7345 9.5043 10.6207L6.5876 7.7041C6.47791 7.59505 6.4167 7.44679 6.4167 7.2917V3.5C6.4167 3.17743 6.67796 2.9167 7 2.9167C7.32204 2.9167 7.5833 3.17743 7.5833 3.5V7.0502L10.3291 9.7959C10.5571 10.024 10.5571 10.3927 10.3291 10.6207Z" fill="white"/>
</symbol></svg>